<svg width="32" height="32" viewBox="0 0 32 32" fill="none" xmlns="http://www.w3.org/2000/svg">
<g opacity="0.8" clip-path="url(#clip0)">
<path d="M11.6768 5.33393C11.8433 5.33393 12.0047 5.24487 12.0895 5.088L12.496 4.33581C12.619 4.10812 12.5342 3.82381 12.3065 3.70075C12.0786 3.57769 11.7945 3.66262 11.6715 3.89018L11.265 4.64237C11.1419 4.87006 11.2267 5.15443 11.4544 5.27743C11.5252 5.31575 11.6015 5.33393 11.6768 5.33393Z" fill="#353536"/>
<path d="M16.4631 4.91664V4.06164C16.4631 3.80283 16.2533 3.59302 15.9945 3.59302C15.7357 3.59302 15.5259 3.80283 15.5259 4.06164V4.91664C15.5259 5.17546 15.7357 5.38527 15.9945 5.38527C16.2533 5.38527 16.4631 5.17546 16.4631 4.91664Z" fill="#353536"/>
<path d="M20.3234 5.32763C20.4032 5.32763 20.4841 5.30719 20.5581 5.26432C20.782 5.13444 20.8582 4.84769 20.7283 4.62382L20.2994 3.88419C20.1695 3.66032 19.8828 3.58413 19.6589 3.71394C19.435 3.84382 19.3588 4.13057 19.4886 4.35444L19.9176 5.09407C20.0045 5.24388 20.1618 5.32763 20.3234 5.32763Z" fill="#353536"/>
<path d="M32 14.4754V14.0625C32 13.1872 31.5591 12.4133 30.8881 11.95C31.046 11.8224 31.1884 11.6722 31.3103 11.4998C31.726 10.9119 31.8304 10.1548 31.5898 9.47444C31.0085 7.83132 29.8005 5.46513 27.3464 3.52351C24.5169 1.28488 20.7017 0.115256 16.0068 0.0473186C16.0023 0.0472561 15.9977 0.0472561 15.9932 0.0473186C13.8713 0.0780061 11.9056 0.337631 10.1508 0.818944C9.90119 0.887381 9.75431 1.14526 9.82275 1.39482C9.89119 1.64438 10.149 1.79138 10.3986 1.72282C12.0753 1.26294 13.9597 1.01457 15.9999 0.984569C26.1383 1.13394 29.5658 6.56332 30.7061 9.78701C30.8475 10.1868 30.7887 10.6138 30.5449 10.9588C30.3032 11.3007 29.9241 11.4968 29.5048 11.4968H2.49494C2.07412 11.4968 1.693 11.2996 1.44944 10.9556C1.20875 10.6158 1.14962 10.1967 1.28712 9.80594C2.11844 7.44369 4.0275 4.24269 8.40119 2.40844C8.63988 2.30832 8.75225 2.03376 8.65213 1.79507C8.552 1.55632 8.27725 1.44413 8.03875 1.54413C5.90912 2.43726 4.12712 3.72763 2.74237 5.37938C1.72344 6.59469 0.936375 7.97932 0.403062 9.49482C0.163312 10.1762 0.265875 10.9061 0.684625 11.4973C0.806563 11.6695 0.951563 11.8206 1.11306 11.9493C0.441312 12.4124 0 13.1868 0 14.0625V14.4754C0 15.7128 0.880562 16.7484 2.04794 16.9886L2.03856 19.7871C0.875938 20.0309 0 21.0638 0 22.2978V22.7107C0 23.9474 0.879625 24.9825 2.04606 25.2234C2.01463 25.7166 2.03075 26.517 2.31512 27.4075C3.08156 29.8075 5.15725 30.9505 6.7635 31.4867C7.68981 31.7959 8.67906 31.9527 9.70375 31.9527H22.2963C23.321 31.9527 24.3102 31.7959 25.2365 31.4867C26.8428 30.9504 28.9185 29.8075 29.6849 27.4075C29.9692 26.5171 29.9854 25.7166 29.9539 25.2234C31.1204 24.9826 32 23.9474 32 22.7107V22.2978C32 21.0605 31.1193 20.0258 29.9521 19.7857V16.9886C31.1194 16.7484 32 15.7128 32 14.4754ZM0.93725 22.7107V22.2978C0.93725 21.5857 1.39731 20.9803 2.03538 20.7596L2.03444 21.0358C2.03444 21.701 2.4075 22.2905 3.00794 22.5743C3.61188 22.8598 4.30863 22.7729 4.82606 22.3476C5.06813 22.1487 5.36281 21.9646 5.87556 21.9646C5.9295 21.9646 5.98031 21.9668 6.02987 21.9699V24.3392H2.56569C1.66775 24.3392 0.93725 23.6086 0.93725 22.7107ZM19.6117 19.045H29.0148V21.036C29.0148 21.3396 28.8515 21.5979 28.5781 21.7271C28.3011 21.858 27.9936 21.8194 27.7556 21.6238C27.4177 21.3461 26.9254 21.0273 26.1105 21.0273C25.1043 21.0273 24.5884 21.4359 24.1333 21.7965C23.7337 22.1131 23.418 22.3631 22.738 22.3631C22.0579 22.3631 21.7423 22.1131 21.3427 21.7965C20.8876 21.436 20.3717 21.0273 19.3654 21.0273C18.3592 21.0273 17.8208 21.4538 17.3882 21.7965C16.9886 22.1131 16.6729 22.3631 15.993 22.3631C15.313 22.3631 14.9974 22.1131 14.5978 21.7965C14.1652 21.4538 13.6268 21.0273 12.6206 21.0273C11.6144 21.0273 11.0986 21.4359 10.6434 21.7965C10.3585 22.0222 10.1152 22.2132 9.75306 22.3046V19.6659C9.75306 19.3235 10.0316 19.045 10.3739 19.045H17.4143C17.6731 19.045 17.8829 18.8352 17.8829 18.5764C17.8829 18.3176 17.6731 18.1078 17.4143 18.1078H10.3739C9.51469 18.1078 8.81575 18.8067 8.81575 19.6659V25.4372C8.81575 25.9469 8.40112 26.3616 7.89144 26.3616C7.38175 26.3616 6.96712 25.9469 6.96712 25.4372V19.6659C6.96712 18.8067 6.26813 18.1078 5.409 18.1078H2.98519V17.0411H29.0148V18.1078H19.6117C19.3529 18.1078 19.1431 18.3176 19.1431 18.5764C19.1431 18.8352 19.3529 19.045 19.6117 19.045ZM5.40894 19.045C5.75131 19.045 6.02987 19.3235 6.02987 19.6659V21.0313C5.97969 21.0289 5.92863 21.0273 5.87556 21.0273C5.06094 21.0273 4.56875 21.3459 4.231 21.6234C3.99287 21.8191 3.68544 21.8578 3.40831 21.7268C3.13488 21.5976 2.97163 21.3393 2.97163 21.0358V19.045H5.40894ZM28.7921 27.1224C28.2728 28.7484 26.9767 29.9177 24.9397 30.5976C24.1093 30.8749 23.2199 31.0154 22.2962 31.0154H9.70375C8.78012 31.0154 7.89075 30.8749 7.06031 30.5976C3.07 29.2656 2.90288 26.3233 2.97856 25.2764H6.02994V25.4371C6.02994 26.4636 6.865 27.2988 7.8915 27.2988C8.918 27.2988 9.75306 26.4637 9.75306 25.4371V25.2764H29.0191C29.0455 25.6767 29.036 26.3584 28.7921 27.1224ZM31.0627 22.2978V22.7107C31.0627 23.6086 30.3322 24.3392 29.4342 24.3392H9.753V23.2612C10.4402 23.1516 10.8534 22.8257 11.2253 22.5312C11.6249 22.2146 11.9406 21.9646 12.6206 21.9646C13.3006 21.9646 13.6162 22.2146 14.0157 22.5312C14.4484 22.8739 14.9867 23.3004 15.9929 23.3004C16.9991 23.3004 17.515 22.8918 17.9701 22.5312C18.3698 22.2146 18.6854 21.9646 19.3654 21.9646C20.0454 21.9646 20.3611 22.2146 20.7607 22.5312C21.2158 22.8917 21.7317 23.3004 22.7379 23.3004C23.7442 23.3004 24.2601 22.8918 24.7152 22.5312C25.1148 22.2146 25.4304 21.9646 26.1104 21.9646C26.6234 21.9646 26.9182 22.1488 27.1604 22.3479C27.6777 22.7731 28.3744 22.8601 28.9784 22.5746C29.5789 22.2909 29.952 21.7013 29.952 21.0361V20.7543C30.5969 20.9711 31.0627 21.5809 31.0627 22.2978ZM29.4343 16.1039H2.56569C1.66775 16.1039 0.937187 15.3733 0.937187 14.4754V14.0625C0.937187 13.1646 1.66775 12.434 2.56569 12.434H29.4342C30.3322 12.434 31.0627 13.1646 31.0627 14.0625V14.4754C31.0627 15.3733 30.3323 16.1039 29.4343 16.1039Z" fill="#353536"/>
</g>
<defs>
<clipPath id="clip0">
<rect width="32" height="32" fill="white"/>
</clipPath>
</defs>
</svg>
